<mxfile host="app.diagrams.net" modified="2023-05-07T23:27:54.181Z" agent="Mozilla/5.0 (Macintosh; Intel Mac OS X 10_15_7) AppleWebKit/537.36 (KHTML, like Gecko) Chrome/112.0.0.0 Safari/537.36" version="21.2.1" etag="J17TEibNxejmKnXCuT6h" type="device">
  <diagram id="NPEppuatN5VZn8SAFTa_" name="Page-1">
    <mxGraphModel dx="1098" dy="603" grid="1" gridSize="10" guides="1" tooltips="1" connect="1" arrows="1" fold="1" page="1" pageScale="1" pageWidth="850" pageHeight="1100" math="0" shadow="0">
      <root>
        <mxCell id="0" />
        <mxCell id="1" parent="0" />
        <mxCell id="6" style="edgeStyle=none;html=1;exitX=0.5;exitY=1;exitDx=0;exitDy=0;" parent="1" source="2" target="4" edge="1">
          <mxGeometry relative="1" as="geometry" />
        </mxCell>
        <mxCell id="13" value="gRPC" style="edgeLabel;html=1;align=center;verticalAlign=middle;resizable=0;points=[];fontSize=14;" parent="6" vertex="1" connectable="0">
          <mxGeometry x="-0.0909" y="1" relative="1" as="geometry">
            <mxPoint as="offset" />
          </mxGeometry>
        </mxCell>
        <mxCell id="7" style="edgeStyle=none;html=1;exitX=0.25;exitY=1;exitDx=0;exitDy=0;entryX=0.5;entryY=0;entryDx=0;entryDy=0;" parent="1" source="2" target="3" edge="1">
          <mxGeometry relative="1" as="geometry" />
        </mxCell>
        <mxCell id="15" value="gRPC" style="edgeLabel;html=1;align=center;verticalAlign=middle;resizable=0;points=[];fontSize=14;" parent="7" vertex="1" connectable="0">
          <mxGeometry x="-0.1588" relative="1" as="geometry">
            <mxPoint as="offset" />
          </mxGeometry>
        </mxCell>
        <mxCell id="8" style="edgeStyle=none;html=1;exitX=0.75;exitY=1;exitDx=0;exitDy=0;entryX=0.5;entryY=0;entryDx=0;entryDy=0;" parent="1" source="2" target="5" edge="1">
          <mxGeometry relative="1" as="geometry" />
        </mxCell>
        <mxCell id="12" value="&lt;font style=&quot;font-size: 14px;&quot;&gt;gRPC&lt;/font&gt;" style="edgeLabel;html=1;align=center;verticalAlign=middle;resizable=0;points=[];" parent="8" vertex="1" connectable="0">
          <mxGeometry x="-0.4336" y="1" relative="1" as="geometry">
            <mxPoint x="34" y="20" as="offset" />
          </mxGeometry>
        </mxCell>
        <mxCell id="2" value="Entry Service" style="html=1;fillColor=#d5e8d4;strokeColor=#82b366;" parent="1" vertex="1">
          <mxGeometry x="380" y="230" width="110" height="50" as="geometry" />
        </mxCell>
        <mxCell id="9" style="edgeStyle=none;html=1;exitX=1;exitY=0.5;exitDx=0;exitDy=0;entryX=0;entryY=0.5;entryDx=0;entryDy=0;" parent="1" source="3" target="4" edge="1">
          <mxGeometry relative="1" as="geometry" />
        </mxCell>
        <mxCell id="16" value="gRPC" style="edgeLabel;html=1;align=center;verticalAlign=middle;resizable=0;points=[];fontSize=14;" parent="9" vertex="1" connectable="0">
          <mxGeometry x="-0.2121" y="4" relative="1" as="geometry">
            <mxPoint x="18" y="1" as="offset" />
          </mxGeometry>
        </mxCell>
        <mxCell id="no8hhJAtK91QGhtdpM6H-19" style="edgeStyle=orthogonalEdgeStyle;rounded=0;orthogonalLoop=1;jettySize=auto;html=1;exitX=0.5;exitY=1;exitDx=0;exitDy=0;" edge="1" parent="1" source="3" target="no8hhJAtK91QGhtdpM6H-16">
          <mxGeometry relative="1" as="geometry" />
        </mxCell>
        <mxCell id="3" value="Character Service" style="html=1;fillColor=#dae8fc;strokeColor=#6c8ebf;" parent="1" vertex="1">
          <mxGeometry x="109" y="390" width="110" height="50" as="geometry" />
        </mxCell>
        <mxCell id="no8hhJAtK91QGhtdpM6H-20" style="edgeStyle=orthogonalEdgeStyle;rounded=0;orthogonalLoop=1;jettySize=auto;html=1;exitX=0.5;exitY=1;exitDx=0;exitDy=0;entryX=0.5;entryY=0;entryDx=0;entryDy=0;" edge="1" parent="1" source="4" target="no8hhJAtK91QGhtdpM6H-17">
          <mxGeometry relative="1" as="geometry" />
        </mxCell>
        <mxCell id="4" value="Inventory Service" style="html=1;fillColor=#dae8fc;strokeColor=#6c8ebf;" parent="1" vertex="1">
          <mxGeometry x="380" y="390" width="110" height="50" as="geometry" />
        </mxCell>
        <mxCell id="no8hhJAtK91QGhtdpM6H-21" style="edgeStyle=orthogonalEdgeStyle;rounded=0;orthogonalLoop=1;jettySize=auto;html=1;exitX=0.5;exitY=1;exitDx=0;exitDy=0;entryX=0.5;entryY=0;entryDx=0;entryDy=0;" edge="1" parent="1" source="5" target="no8hhJAtK91QGhtdpM6H-18">
          <mxGeometry relative="1" as="geometry" />
        </mxCell>
        <mxCell id="5" value="Item Service" style="html=1;fillColor=#dae8fc;strokeColor=#6c8ebf;" parent="1" vertex="1">
          <mxGeometry x="630" y="390" width="110" height="50" as="geometry" />
        </mxCell>
        <mxCell id="11" style="edgeStyle=none;html=1;exitX=0.5;exitY=1;exitDx=0;exitDy=0;" parent="1" source="10" target="2" edge="1">
          <mxGeometry relative="1" as="geometry" />
        </mxCell>
        <mxCell id="14" value="HTTP(REST)" style="edgeLabel;html=1;align=center;verticalAlign=middle;resizable=0;points=[];fontSize=14;" parent="11" vertex="1" connectable="0">
          <mxGeometry x="-0.1" y="-1" relative="1" as="geometry">
            <mxPoint as="offset" />
          </mxGeometry>
        </mxCell>
        <mxCell id="10" value="Game Client" style="html=1;fillColor=#fff2cc;strokeColor=#d6b656;" parent="1" vertex="1">
          <mxGeometry x="380" y="100" width="110" height="50" as="geometry" />
        </mxCell>
        <mxCell id="no8hhJAtK91QGhtdpM6H-16" value="Character DB" style="shape=datastore;whiteSpace=wrap;html=1;fillColor=#e1d5e7;strokeColor=#9673a6;" vertex="1" parent="1">
          <mxGeometry x="134" y="500" width="60" height="60" as="geometry" />
        </mxCell>
        <mxCell id="no8hhJAtK91QGhtdpM6H-17" value="Inventory DB" style="shape=datastore;whiteSpace=wrap;html=1;fillColor=#e1d5e7;strokeColor=#9673a6;" vertex="1" parent="1">
          <mxGeometry x="405" y="500" width="60" height="60" as="geometry" />
        </mxCell>
        <mxCell id="no8hhJAtK91QGhtdpM6H-18" value="Item DB" style="shape=datastore;whiteSpace=wrap;html=1;fillColor=#e1d5e7;strokeColor=#9673a6;" vertex="1" parent="1">
          <mxGeometry x="655" y="500" width="60" height="60" as="geometry" />
        </mxCell>
        <mxCell id="no8hhJAtK91QGhtdpM6H-24" style="rounded=0;orthogonalLoop=1;jettySize=auto;html=1;exitX=0;exitY=0.5;exitDx=0;exitDy=0;exitPerimeter=0;dashed=1;endArrow=none;endFill=0;" edge="1" parent="1" source="no8hhJAtK91QGhtdpM6H-22">
          <mxGeometry relative="1" as="geometry">
            <mxPoint x="480" y="190" as="targetPoint" />
          </mxGeometry>
        </mxCell>
        <mxCell id="no8hhJAtK91QGhtdpM6H-22" value="Character: Create, Get, Update, Delete&lt;br&gt;Inventory:&amp;nbsp; Get, Update&lt;br&gt;Item:&amp;nbsp; &amp;nbsp; &amp;nbsp; &amp;nbsp; &amp;nbsp; Create, Get, Update, Delete" style="shape=note;whiteSpace=wrap;html=1;backgroundOutline=1;darkOpacity=0.05;size=15;align=left;" vertex="1" parent="1">
          <mxGeometry x="520" y="150" width="260" height="60" as="geometry" />
        </mxCell>
        <mxCell id="no8hhJAtK91QGhtdpM6H-26" style="rounded=0;orthogonalLoop=1;jettySize=auto;html=1;exitX=0.5;exitY=0;exitDx=0;exitDy=0;exitPerimeter=0;dashed=1;endArrow=none;endFill=0;" edge="1" parent="1" source="no8hhJAtK91QGhtdpM6H-25">
          <mxGeometry relative="1" as="geometry">
            <mxPoint x="300" y="420" as="targetPoint" />
          </mxGeometry>
        </mxCell>
        <mxCell id="no8hhJAtK91QGhtdpM6H-25" value="Create -&amp;gt; Create Inventory&lt;br&gt;Delete -&amp;gt; Delete Inventory" style="shape=note;whiteSpace=wrap;html=1;backgroundOutline=1;darkOpacity=0.05;size=15;align=left;" vertex="1" parent="1">
          <mxGeometry x="230" y="470" width="150" height="60" as="geometry" />
        </mxCell>
        <mxCell id="no8hhJAtK91QGhtdpM6H-28" style="rounded=0;orthogonalLoop=1;jettySize=auto;html=1;exitX=0;exitY=0;exitDx=160;exitDy=32.5;exitPerimeter=0;endArrow=none;endFill=0;dashed=1;" edge="1" parent="1" source="no8hhJAtK91QGhtdpM6H-27">
          <mxGeometry relative="1" as="geometry">
            <mxPoint x="290" y="320" as="targetPoint" />
          </mxGeometry>
        </mxCell>
        <mxCell id="no8hhJAtK91QGhtdpM6H-27" value="Create, Get, Update, Delete" style="shape=note;whiteSpace=wrap;html=1;backgroundOutline=1;darkOpacity=0.05;size=15;align=left;" vertex="1" parent="1">
          <mxGeometry x="90" y="270" width="160" height="50" as="geometry" />
        </mxCell>
        <mxCell id="no8hhJAtK91QGhtdpM6H-31" style="rounded=0;orthogonalLoop=1;jettySize=auto;html=1;exitX=0;exitY=0.5;exitDx=0;exitDy=0;exitPerimeter=0;dashed=1;endArrow=none;endFill=0;" edge="1" parent="1" source="no8hhJAtK91QGhtdpM6H-30">
          <mxGeometry relative="1" as="geometry">
            <mxPoint x="580" y="330" as="targetPoint" />
          </mxGeometry>
        </mxCell>
        <mxCell id="no8hhJAtK91QGhtdpM6H-30" value="Create, Get, Update, Delete" style="shape=note;whiteSpace=wrap;html=1;backgroundOutline=1;darkOpacity=0.05;size=15;align=left;" vertex="1" parent="1">
          <mxGeometry x="610" y="280" width="160" height="40" as="geometry" />
        </mxCell>
        <mxCell id="no8hhJAtK91QGhtdpM6H-33" style="rounded=0;orthogonalLoop=1;jettySize=auto;html=1;exitX=0.5;exitY=1;exitDx=0;exitDy=0;exitPerimeter=0;dashed=1;endArrow=none;endFill=0;" edge="1" parent="1" source="no8hhJAtK91QGhtdpM6H-32">
          <mxGeometry relative="1" as="geometry">
            <mxPoint x="410" y="320" as="targetPoint" />
          </mxGeometry>
        </mxCell>
        <mxCell id="no8hhJAtK91QGhtdpM6H-32" value="Get, Update" style="shape=note;whiteSpace=wrap;html=1;backgroundOutline=1;darkOpacity=0.05;size=15;align=left;" vertex="1" parent="1">
          <mxGeometry x="230" y="190" width="100" height="50" as="geometry" />
        </mxCell>
      </root>
    </mxGraphModel>
  </diagram>
</mxfile>
